<svg width="900" height="900" viewBox="0 0 900 900" fill="none" xmlns="http://www.w3.org/2000/svg">
  <rect width="900" height="900" rx="48" fill="#F7EBDD"/>
  <circle cx="450" cy="320" r="130" fill="#F5C9A5"/>
  <path d="M320 304C334 196 412 154 486 154C580 154 632 222 620 320C566 276 506 256 424 262C392 264 354 278 320 304Z" fill="#163C37"/>
  <rect x="246" y="482" width="408" height="238" rx="96" fill="#1E5A51"/>
  <rect x="318" y="520" width="262" height="176" rx="80" fill="#E6F3EF"/>
  <circle cx="408" cy="320" r="12" fill="#6F4B33"/>
  <circle cx="492" cy="320" r="12" fill="#6F4B33"/>
  <path d="M406 378C432 396 468 396 494 378" stroke="#A56644" stroke-width="10" stroke-linecap="round"/>
  <text x="84" y="110" fill="#163C37" font-size="54" font-family="Arial, sans-serif" font-weight="700">Coach Pim</text>
</svg>
