<svg width="900" height="900" viewBox="0 0 900 900" fill="none" xmlns="http://www.w3.org/2000/svg">
  <rect width="900" height="900" rx="48" fill="#F4EEE7"/>
  <circle cx="450" cy="320" r="130" fill="#F1C4A2"/>
  <path d="M300 324C304 196 392 128 470 128C572 128 638 210 620 330C586 284 540 246 470 240C402 234 348 264 300 324Z" fill="#4A2F35"/>
  <rect x="236" y="482" width="428" height="242" rx="102" fill="#A35E5F"/>
  <rect x="316" y="530" width="268" height="176" rx="76" fill="#F9E7E5"/>
  <circle cx="408" cy="326" r="12" fill="#6A4331"/>
  <circle cx="492" cy="326" r="12" fill="#6A4331"/>
  <path d="M406 382C432 398 468 398 494 382" stroke="#A1674B" stroke-width="10" stroke-linecap="round"/>
  <text x="92" y="110" fill="#4A2F35" font-size="54" font-family="Arial, sans-serif" font-weight="700">Coach Fon</text>
</svg>
